# xmcd CD database file
#
# Track frame offsets:
#	150
#	23865
#	57510
#	75988
#	106918
#	147290
#	173200
#	196550
#	230225
#	251410
#	278695
#
# Disc length: 4289 seconds
#
# Revision: 1
# Processed by: cddbd v1.5.1PL0 Copyright (c) Steve Scherf et al.
# Submitted via: CDex 1.51
#
DISCID=8c10bf0b
DTITLE=Sonny Rollins - Rollins 'round Midnight
DYEAR=1900
DGENRE=Jazz
TTITLE0=Yesterdays
TTITLE1=Without A Song
TTITLE2='round Midnight
TTITLE3=You Do Something To Me
TTITLE4=Loverman
TTITLE5=There Will Never Be Another You
TTITLE6=Where Are You
TTITLE7=God Bless The Child
TTITLE8=Just Friends
TTITLE9=My One And Only Love
TTITLE10=All The Things You Are
EXTD=
EXTT0=
EXTT1=
EXTT2=
EXTT3=
EXTT4=
EXTT5=
EXTT6=
EXTT7=
EXTT8=
EXTT9=
EXTT10=
PLAYORDER=
